<svg width="15" height="15" viewBox="0 0 15 15" fill="none" xmlns="http://www.w3.org/2000/svg">
<g clip-path="url(#clip0_699_11664)">
<rect x="3" y="3" width="9" height="10" fill="#FED12E"/>
<path d="M13.75 3.125H10.625V1.25C10.625 1.08424 10.5592 0.925268 10.4419 0.808058C10.3247 0.690848 10.1658 0.625 10 0.625H5C4.83424 0.625 4.67527 0.690848 4.55806 0.808058C4.44085 0.925268 4.375 1.08424 4.375 1.25V3.125H1.25C1.08424 3.125 0.925268 3.19085 0.808058 3.30806C0.690848 3.42527 0.625 3.58424 0.625 3.75C0.625 3.91576 0.690848 4.07473 0.808058 4.19194C0.925268 4.30915 1.08424 4.375 1.25 4.375H1.94813L3.13 13.8275C3.14889 13.9786 3.22231 14.1177 3.33648 14.2185C3.45064 14.3193 3.59769 14.375 3.75 14.375H11.25C11.4023 14.375 11.5494 14.3193 11.6635 14.2185C11.7777 14.1177 11.8511 13.9786 11.87 13.8275L13.0519 4.375H13.75C13.9158 4.375 14.0747 4.30915 14.1919 4.19194C14.3092 4.07473 14.375 3.91576 14.375 3.75C14.375 3.58424 14.3092 3.42527 14.1919 3.30806C14.0747 3.19085 13.9158 3.125 13.75 3.125ZM5.625 1.875H9.375V3.125H5.625V1.875ZM10.6981 13.125H4.30187L3.20812 4.375H11.7919L10.6981 13.125Z" fill="black"/>
</g>
<defs>
<clipPath id="clip0_699_11664">
<rect width="15" height="15" fill="white"/>
</clipPath>
</defs>
</svg>
