<svg width="17" height="17" viewBox="0 0 17 17" fill="none" xmlns="http://www.w3.org/2000/svg">
<rect x="2" y="4" width="11" height="11" fill="#FED12E"/>
<path d="M15.3751 3.16997L13.8296 1.62438C13.6967 1.49159 13.5166 1.41699 13.3288 1.41699C13.1409 1.41699 12.9608 1.49159 12.828 1.62438L6.64635 7.80672C6.56834 7.88396 6.50983 7.97865 6.47564 8.08297L5.70285 10.4013C5.6674 10.5078 5.65774 10.6211 5.67465 10.732C5.69157 10.8429 5.73458 10.9482 5.80015 11.0392C5.86572 11.1302 5.95196 11.2044 6.05179 11.2555C6.15162 11.3067 6.26217 11.3334 6.37435 11.3335C6.45047 11.3335 6.52607 11.3211 6.59818 11.2967L8.91656 10.5239C9.02088 10.4897 9.11557 10.4312 9.19281 10.3532L15.3751 4.17155C15.5079 4.03872 15.5825 3.85858 15.5825 3.67076C15.5825 3.48293 15.5079 3.3028 15.3751 3.16997ZM8.30952 9.2333L7.49422 9.5053L7.76622 8.69001L13.3288 3.12676L13.8728 3.67076L8.30952 9.2333ZM1.41602 4.25017C1.41602 4.06231 1.49064 3.88215 1.62348 3.74931C1.75632 3.61647 1.93649 3.54184 2.12435 3.54184H7.79102C7.97888 3.54184 8.15904 3.61647 8.29188 3.74931C8.42472 3.88215 8.49935 4.06231 8.49935 4.25017C8.49935 4.43804 8.42472 4.6182 8.29188 4.75104C8.15904 4.88388 7.97888 4.95851 7.79102 4.95851H2.83268V14.1668H12.041V9.20851C12.041 9.02065 12.1156 8.84048 12.2485 8.70764C12.3813 8.5748 12.5615 8.50017 12.7493 8.50017C12.9372 8.50017 13.1174 8.5748 13.2502 8.70764C13.3831 8.84048 13.4577 9.02065 13.4577 9.20851V14.8752C13.4577 15.063 13.3831 15.2432 13.2502 15.376C13.1174 15.5089 12.9372 15.5835 12.7493 15.5835H2.12435C1.93649 15.5835 1.75632 15.5089 1.62348 15.376C1.49064 15.2432 1.41602 15.063 1.41602 14.8752V4.25017Z" fill="black"/>
</svg>
