<svg width="44" height="28" viewBox="0 0 44 28" fill="none" xmlns="http://www.w3.org/2000/svg">
<rect x="4.40723" y="5.03711" width="6.92593" height="22.037" rx="3" fill="white"/>
<rect x="4.40723" y="5.03711" width="6.92593" height="22.037" rx="3" fill="white"/>
<rect x="4.40723" y="5.03711" width="6.92593" height="22.037" rx="3" fill="white"/>
<rect y="13.8518" width="6.92593" height="5.03704" rx="1" fill="white"/>
<rect y="13.8518" width="6.92593" height="5.03704" rx="1" fill="white"/>
<rect y="13.8518" width="6.92593" height="5.03704" rx="1" fill="white"/>
<rect x="36.5186" y="13.8518" width="6.92593" height="5.03704" rx="1" fill="white"/>
<rect x="36.5186" y="13.8518" width="6.92593" height="5.03704" rx="1" fill="white"/>
<rect x="36.5186" y="13.8518" width="6.92593" height="5.03704" rx="1" fill="white"/>
<rect x="25.8145" width="7.55556" height="5.03704" rx="1" fill="white"/>
<rect x="25.8145" width="7.55556" height="5.03704" rx="1" fill="white"/>
<rect x="25.8145" width="7.55556" height="5.03704" rx="1" fill="white"/>
<rect x="11.333" width="6.92593" height="5.03704" rx="1" fill="white"/>
<rect x="11.333" width="6.92593" height="5.03704" rx="1" fill="white"/>
<rect x="11.333" width="6.92593" height="5.03704" rx="1" fill="white"/>
<path d="M18.2598 4.40747H25.1857V24.7038C25.1857 26.3606 23.8425 27.7038 22.1857 27.7038H21.2598C19.6029 27.7038 18.2598 26.3606 18.2598 24.7038V4.40747Z" fill="white"/>
<path d="M18.2598 4.40747H25.1857V24.7038C25.1857 26.3606 23.8425 27.7038 22.1857 27.7038H21.2598C19.6029 27.7038 18.2598 26.3606 18.2598 24.7038V4.40747Z" fill="white"/>
<path d="M18.2598 4.40747H25.1857V24.7038C25.1857 26.3606 23.8425 27.7038 22.1857 27.7038H21.2598C19.6029 27.7038 18.2598 26.3606 18.2598 24.7038V4.40747Z" fill="white"/>
<path d="M32.1113 3.77783H36.0373C37.6941 3.77783 39.0373 5.12098 39.0373 6.77783V24.7038C39.0373 26.3606 37.6941 27.7038 36.0373 27.7038H35.1113C33.4545 27.7038 32.1113 26.3606 32.1113 24.7038V3.77783Z" fill="white"/>
<path d="M32.1113 3.77783H36.0373C37.6941 3.77783 39.0373 5.12098 39.0373 6.77783V24.7038C39.0373 26.3606 37.6941 27.7038 36.0373 27.7038H35.1113C33.4545 27.7038 32.1113 26.3606 32.1113 24.7038V3.77783Z" fill="white"/>
<path d="M32.1113 3.77783H36.0373C37.6941 3.77783 39.0373 5.12098 39.0373 6.77783V24.7038C39.0373 26.3606 37.6941 27.7038 36.0373 27.7038H35.1113C33.4545 27.7038 32.1113 26.3606 32.1113 24.7038V3.77783Z" fill="white"/>
<path d="M9.58202 7.1622C9.87247 5.7719 10.8123 4.50651 12.1005 4.01405" stroke="white" stroke-width="8"/>
<path d="M27.0742 3.77785C24.5557 5.03711 18.5741 5.66673 16.6853 3.77785" stroke="white" stroke-width="7"/>
<path d="M37.7781 2.55396C39.8911 2.98446 40.6287 3.75327 40.9263 6.33174" stroke="white" stroke-width="1.5"/>
<path d="M38.4071 0.942513C41.4016 1.55262 42.447 2.64219 42.8687 6.29643" stroke="white" stroke-width="1.5"/>
</svg>
